# xmcd CD database file
#
# Track frame offsets:
#	150
#	65725
#	131405
#	167980
#	200370
#	260857
#	323387
#
# Disc length: 4503 seconds
#
# Revision: 0
# Processed by: cddbd v1.5PL3 Copyright (c) Steve Scherf et al.
# Submitted via: CDex 1.51
#
DISCID=65119507
DTITLE=Ronnie Scott - When I Want Your Opinion, I'll Give It To You
DYEAR=1965
DGENRE=Jazz
TTITLE0=Ronnie's Blues
TTITLE1=I'm Sick And Tired Of Waking Up Sick And Tired
TTITLE2=What's New?
TTITLE3=Easy Living
TTITLE4=Blues In B And B Flat
TTITLE5=Bye Bye Blackbird
TTITLE6=One Night At Ronnie's
EXTD=YEAR: 1965
EXTT0=
EXTT1=
EXTT2=
EXTT3=
EXTT4=
EXTT5=
EXTT6=
PLAYORDER=
